# xmcd CD database file
#
# Track frame offsets:
#	150
#	14442
#	33915
#	48833
#	62515
#	75924
#	96816
#	112493
#	125218
#	135992
#	152059
#	162615
#	178556
#	201846
#	222306
#	237178
#
# Disc length: 3319 seconds
#
# Revision: 0
# Processed by: cddbd v1.5.2PL0 Copyright (c) Steve Scherf et al.
# Submitted via: CDex 1.51
#
DISCID=d90cf510
DTITLE=Monica Zetterlund - Sakta vi gå genom stan, Det bästa med - CD2
DYEAR=2008
DGENRE=Jazz
TTITLE0=Bedårande sommarvals
TTITLE1=Håll musiken igång
TTITLE2=Sweet Georgie Fame
TTITLE3=En man och en kvinna
TTITLE4=It could happen to you
TTITLE5=Come rain or come shine
TTITLE6=Visan om mina vänner
TTITLE7=Jag vet en deilig rosa
TTITLE8=Farfars vals
TTITLE9=Love for sale
TTITLE10=It´s all-right with me
TTITLE11=Alfie
TTITLE12=Men tiden går
TTITLE13=En slump
TTITLE14=Sommar regn
TTITLE15=Ack, Värmeland du sköna
EXTD=YEAR: 2008
EXTT0=
EXTT1=
EXTT2=
EXTT3=
EXTT4=
EXTT5=
EXTT6=
EXTT7=
EXTT8=
EXTT9=
EXTT10=
EXTT11=
EXTT12=
EXTT13=
EXTT14=
EXTT15=
PLAYORDER=
